<svg id="圖層_1" data-name="圖層 1" xmlns="http://www.w3.org/2000/svg" viewBox="0 0 226.77 226.77"><defs><style>.cls-1{fill:#f8c985;}.cls-2{fill:#f1b252;}.cls-3{fill:#556f79;}</style></defs><path class="cls-1" d="M66,123.89c-.41,4.49,1.76,11.39,7.35,10.41a47,47,0,0,1,1.43-13.07c.36-1.63.77-3.3,1.22-4.94C71.15,113.84,66.42,119.07,66,123.89Zm5.88,6.81c-1.47.82-3.06-.77-3.31-2.12A6.16,6.16,0,0,1,70,123.31a10.78,10.78,0,0,0-1.14-1.83c-.82-1,.65-2.49,1.43-1.43a13.19,13.19,0,0,1,2.69,6C73.28,127.56,73.48,129.8,71.89,130.7Z"/><path class="cls-1" d="M70.87,125.68a3.23,3.23,0,0,0-.29,2.37c.49,1.63.53-.94.49-1.18A10.54,10.54,0,0,0,70.87,125.68Z"/><path class="cls-2" d="M150.88,133.76s-.08,0-.08.05a13.17,13.17,0,0,0-.57,1.63c-.21.69-.61,1.71-.12,2.41a1.25,1.25,0,0,0,2-.21C153.17,136.42,153.54,132.74,150.88,133.76Z"/><path class="cls-2" d="M145.94,118.09a18.26,18.26,0,0,1,6.94-.7c5.64-18.28-.49-39.51-18-48.94-.57-.33-1.18-.62-1.8-.9C145.25,80.33,149.78,100.53,145.94,118.09Z"/><path class="cls-2" d="M98.06,160.54A36.06,36.06,0,0,0,116,161.89c10.94-2,20.37-8.16,27.55-16.53a11.75,11.75,0,0,1-2.81-2.21c-6.29,5.39-12.37,11.48-19.8,15.19C113.69,162,105.81,162.1,98.06,160.54Z"/><path class="cls-1" d="M156.52,122.29a12.77,12.77,0,0,0-10.58-.32c-2.24.81-3.18-2.74-1-3.56.33-.12.7-.24,1-.32,3.8-17.56-.69-37.8-12.82-50.54a33,33,0,0,0-23.75-2A31.37,31.37,0,0,0,89.65,82.53a65.17,65.17,0,0,0-3.23,9.1,11.93,11.93,0,0,1,12.9,2.45c1.72,1.64-.9,4.25-2.61,2.62A8.16,8.16,0,0,0,85,97l-.08.08c-.28,1.11-.57,2.25-.86,3.35-1.71,6.53-3.55,13-5.18,19.56-1.51,6.08-2.78,12.57-1.27,18.82A29.4,29.4,0,0,0,85,152.3a32.61,32.61,0,0,0,13.11,8.24c7.75,1.56,15.59,1.43,22.86-2.2,7.43-3.71,13.51-9.8,19.8-15.19a9.91,9.91,0,0,1-1.15-1.42c-1.34-2,1.84-3.8,3.19-1.84,2.2,3.18,6.78,4.24,10.33,2.81a12.69,12.69,0,0,0,7.3-9C161.33,129.56,160.56,124.5,156.52,122.29ZM93.85,122a98.76,98.76,0,0,1,10.86-16.25c1.51-1.84,4.08.77,2.61,2.61a87.42,87.42,0,0,0-9.22,13.6c-.45.77-2.53,3.71-.94,4,1.3.28,2.57-.21,3.84-.25a6.12,6.12,0,0,1,4.81,1.64c1.68,1.67-.9,4.24-2.61,2.61-1.14-1.15-3.06-.33-4.49-.25a6.88,6.88,0,0,1-4-.81C91.93,127.27,92.63,124.25,93.85,122Zm-5.14-6.13c-3.31,0-4.53-3.22-3.72-5.59a5.4,5.4,0,0,0-.45.41c-.89,1-2.32-.49-1.42-1.43a5.18,5.18,0,0,1,5.18-1.51h.37C94,107.68,94,115.84,88.71,115.84Zm21.35,29.68a44.13,44.13,0,0,1-13.47-1.88c-1.27-.36-.74-2.36.53-2a42.07,42.07,0,0,0,12.94,1.8A1,1,0,0,1,110.06,145.52Zm8.33-7.06A35.49,35.49,0,0,1,93,137.19c-2.17-.94-.29-4.12,1.83-3.18a31.48,31.48,0,0,0,22.5.9C119.65,134.17,120.63,137.72,118.39,138.46ZM120.14,117c-3.84,0-4.86-4.33-3.1-6.7a4.21,4.21,0,0,0-.94.49c-1.1.74-2.12-1-1-1.75a6.41,6.41,0,0,1,8.82,1.71.81.81,0,0,1,0,.94C124.59,114.05,123.33,117,120.14,117Zm11.39-15.84a10.6,10.6,0,0,0-14.82-3.35c-2,1.27-3.88-1.92-1.83-3.18a14.32,14.32,0,0,1,19.84,4.69C136,101.35,132.8,103.19,131.53,101.19ZM155.7,129.8a4,4,0,0,0-3.67,1.8,3.79,3.79,0,0,1,3,4.33c-.37,2.2-2.53,5.35-5.19,4.2-3.1-1.34-1.79-5-.77-7.3,1.22-2.78,3.34-5.39,6.65-5.07C157,127.89,157,129.93,155.7,129.8Z"/><path class="cls-3" d="M160.07,120.33a11.29,11.29,0,0,0-3.6-2.08,48.06,48.06,0,0,0-1-31.76,42.1,42.1,0,0,0-20.33-22,37,37,0,0,0-29-1.64C96.14,66.49,89,74,85.12,83.76c-2.33,5.79-3.64,12-5.23,18q-1.47,5.45-2.94,10.94a10.38,10.38,0,0,0-8.29.57c-3.59,1.72-5.55,5.8-6.16,9.51-1.18,7.07,3.22,16.37,11.27,15.19a10.87,10.87,0,0,0,.2,1.14,32.24,32.24,0,0,0,6.41,13.43c6.82,8.58,17.1,13.07,27.92,13.52,11.07.45,21.6-3.92,30.17-10.66a52.79,52.79,0,0,0,7.92-7.75,1.76,1.76,0,0,0,.45-1,13.47,13.47,0,0,0,6.12,0c5.27-1.18,9-6,10.66-10.81C165.42,130.54,164.39,124.05,160.07,120.33Zm-85.28.9a47,47,0,0,0-1.43,13.07c-5.59,1-7.76-5.92-7.35-10.41.41-4.82,5.14-10.09,10-7.6C75.6,118,75.2,119.6,74.79,121.23Zm85.6,12.45a12.69,12.69,0,0,1-7.3,9c-3.56,1.43-8.13.37-10.33-2.81-1.35-1.92-4.53-.08-3.19,1.84a12,12,0,0,0,4,3.59c-7.14,8.37-16.61,14.57-27.55,16.53-11.19,2-23.11-1.35-31-9.59a30,30,0,0,1-7.35-13.51c-1.51-6.25-.24-12.74,1.27-18.82,1.63-6.54,3.47-13,5.18-19.56.29-1.1.58-2.2.86-3.35l.08-.08a8.11,8.11,0,0,1,11.68-.28c1.71,1.63,4.33-1,2.61-2.62a11.93,11.93,0,0,0-12.9-2.45,65.17,65.17,0,0,1,3.23-9.1,31.61,31.61,0,0,1,19.75-16.94,33.43,33.43,0,0,1,25.56,2.86c17.51,9.39,23.6,30.65,18,48.94a17.69,17.69,0,0,0-8,1.06c-2.2.82-1.26,4.37,1,3.56,3.47-1.27,7.27-1.47,10.57.32C160.56,124.5,161.33,129.56,160.39,133.68Z"/><path class="cls-3" d="M94.67,128.82a6.79,6.79,0,0,0,4,.82c1.39-.08,3.35-.9,4.49.25,1.67,1.67,4.29-.94,2.61-2.62a6.11,6.11,0,0,0-4.82-1.63c-1.3,0-2.57.53-3.83.25-1.59-.33.53-3.23.94-4a90.72,90.72,0,0,1,9.22-13.59c1.47-1.8-1.1-4.45-2.61-2.61a98.26,98.26,0,0,0-10.86,16.24C92.63,124.25,91.93,127.27,94.67,128.82Z"/><path class="cls-3" d="M117.41,135a31.47,31.47,0,0,1-22.5-.9c-2.16-.94-4,2.25-1.83,3.18a35.22,35.22,0,0,0,25.35,1.27C120.63,137.72,119.65,134.17,117.41,135Z"/><path class="cls-3" d="M88.71,107.68h-.37a5.1,5.1,0,0,0-5.18,1.51c-.9,1,.57,2.41,1.42,1.43a2.17,2.17,0,0,1,.45-.41c-.81,2.41.41,5.59,3.72,5.59C94,115.84,94,107.68,88.71,107.68Z"/><path class="cls-3" d="M114.88,94.66c-2,1.22-.17,4.4,1.83,3.18a10.6,10.6,0,0,1,14.82,3.35c1.27,2,4.45.16,3.19-1.84A14.32,14.32,0,0,0,114.88,94.66Z"/><path class="cls-3" d="M123.9,110.74a6.44,6.44,0,0,0-8.82-1.71c-1.06.73,0,2.53,1,1.75a4.21,4.21,0,0,1,.94-.49c-1.76,2.37-.69,6.7,3.1,6.7,3.19,0,4.41-2.94,3.8-5.31A.81.81,0,0,0,123.9,110.74Z"/><path class="cls-3" d="M155.7,127.76c-3.31-.28-5.43,2.29-6.65,5.07-1,2.32-2.29,6,.77,7.3,2.65,1.15,4.86-2,5.19-4.2a3.77,3.77,0,0,0-3-4.33,4,4,0,0,1,3.68-1.8C157,129.93,157,127.89,155.7,127.76Zm-3.59,9.88a1.25,1.25,0,0,1-2,.21c-.49-.7-.09-1.72.12-2.41.16-.53.37-1.06.57-1.63,0,0,0,0,.08-.05C153.54,132.74,153.17,136.42,152.11,137.64Z"/><path class="cls-3" d="M70.34,120c-.82-1-2.25.41-1.43,1.43a10.78,10.78,0,0,1,1.14,1.83,6.23,6.23,0,0,0-1.43,5.27c.25,1.35,1.84,3,3.31,2.12s1.35-3.14,1.1-4.69A13.57,13.57,0,0,0,70.34,120Zm.24,8a3.23,3.23,0,0,1,.29-2.37,10.75,10.75,0,0,1,.2,1.18C71.11,127.11,71.07,129.64,70.58,128Z"/><path class="cls-3" d="M110.06,143.48a41.9,41.9,0,0,1-12.94-1.8,1,1,0,0,0-.53,2,44.34,44.34,0,0,0,13.47,1.88A1,1,0,0,0,110.06,143.48Z"/></svg>