<svg id="圖層_1" data-name="圖層 1" xmlns="http://www.w3.org/2000/svg" viewBox="0 0 226.77 226.77"><defs><style>.cls-1{fill:#2f2725;}</style></defs><path class="cls-1" d="M79.34,92.68a8.79,8.79,0,0,0-2.15.26,10.12,10.12,0,0,0-8.75,3.26c-1.8,2,.94,4.89,2.83,3.17-.94,4.81,1.72,10.47,8.15,10.47C90.41,109.84,90.41,92.68,79.34,92.68Z"/><path class="cls-1" d="M130.14,67.71c-4.2,2.57-.34,9.27,3.86,6.69,9.87-6.09,22.23-3.43,28.41,6.44,2.66,4.2,9.35.34,6.69-3.86A28.13,28.13,0,0,0,130.14,67.71Z"/><path class="cls-1" d="M58.87,62.26c-4.2,2.57-.34,9.27,3.86,6.69C72.6,62.86,85,65.52,91.14,75.39c2.66,4.2,9.35.34,6.69-3.86A28.13,28.13,0,0,0,58.87,62.26Z"/><path class="cls-1" d="M148,99.2a2.43,2.43,0,0,0-.43-.51,8.07,8.07,0,0,0-3.17-2.92,12.46,12.46,0,0,0-13.82.09c-2.23,1.54-.09,5.32,2.15,3.69a1.94,1.94,0,0,0,.51-.35c-2.57,5.07-.17,12.87,7.29,12.87,7,0,9.53-6.77,7.73-11.75A1.39,1.39,0,0,0,148,99.2Z"/><path class="cls-1" d="M86,121.94c-2.84,3.44-1.46,9.19,1.88,11.76,5.32,4.12,11.76,2.75,17.51.34a8.34,8.34,0,0,0,12.36.18c3.69-3.78,1.63-11.76-4.46-10-2.67.78-1.55,4.9,1.11,4.12,1.37-.43,1,1.55.69,2.24a4.1,4.1,0,0,1-2.15,1.8,4,4,0,0,1-4.8-1.8,2.11,2.11,0,0,0-2.49-.86,2.26,2.26,0,0,0-1.29.08c-3.26,1.38-6.61,2.58-10.21,2.15-4.81-.69-8-7-2.23-9,4.46-1.55,7.63-2,10.47-6.18,5.83-8.5,6.18-21.28,4.72-31-.43-2.75-4.55-1.55-4.12,1.12a49.05,49.05,0,0,1-2.32,23.59c-1.37,4-3.26,6.61-7.47,7.64C90.41,118.94,87.92,119.54,86,121.94Z"/><path class="cls-1" d="M128.6,148.2a55.47,55.47,0,0,1-41.45-2.31c-4.47-2.15-8.41,4.54-3.86,6.69a63.81,63.81,0,0,0,47.37,3.09C135.29,154,133.32,146.57,128.6,148.2Z"/><path class="cls-1" d="M115.72,163.91a46,46,0,0,1-22-1.63c-2.66-.86-3.78,3.26-1.12,4.12A51.14,51.14,0,0,0,116.93,168C119.59,167.6,118.47,163.39,115.72,163.91Z"/></svg>